<svg width="1800" height="1080" viewBox="0 0 1800 1080" fill="none" xmlns="http://www.w3.org/2000/svg">
  <rect width="1800" height="1080" fill="#F5EFE6"/>
  <circle cx="182" cy="138" r="170" fill="#D56A3C" fill-opacity="0.12"/>
  <circle cx="1602" cy="116" r="162" fill="#2A7B87" fill-opacity="0.12"/>
  <rect x="42" y="42" width="1716" height="996" rx="32" fill="#FFFCF7" stroke="#DCD2C6" stroke-width="2"/>

  <rect x="86" y="78" width="1628" height="120" rx="28" fill="url(#head)"/>
  <rect x="122" y="110" width="560" height="28" rx="14" fill="#23313A"/>
  <rect x="122" y="152" width="724" height="16" rx="8" fill="#748087"/>
  <rect x="1360" y="108" width="292" height="54" rx="18" fill="#FFF6EE" stroke="#E2D6C9"/>
  <rect x="1390" y="127" width="232" height="16" rx="8" fill="#C95E33"/>

  <rect x="92" y="240" width="264" height="152" rx="28" fill="#FFF9F3" stroke="#E4D9CC"/>
  <rect x="120" y="272" width="108" height="16" rx="8" fill="#2A7B87"/>
  <rect x="120" y="306" width="196" height="22" rx="11" fill="#223139"/>
  <rect x="120" y="342" width="182" height="14" rx="7" fill="#8A959B"/>
  <rect x="120" y="364" width="150" height="14" rx="7" fill="#B1BABF"/>

  <rect x="454" y="232" width="360" height="176" rx="30" fill="#F4FBFC" stroke="#BFD7DB" stroke-width="2"/>
  <rect x="486" y="268" width="140" height="18" rx="9" fill="#2A7B87"/>
  <rect x="486" y="306" width="258" height="24" rx="12" fill="#223139"/>
  <rect x="486" y="344" width="244" height="14" rx="7" fill="#7A868D"/>
  <rect x="486" y="366" width="220" height="14" rx="7" fill="#ADB7BC"/>
  <rect x="486" y="384" width="112" height="12" rx="6" fill="#D77945"/>

  <rect x="916" y="240" width="328" height="152" rx="28" fill="#FFF4EA" stroke="#E4C9B7" stroke-width="2"/>
  <rect x="948" y="272" width="128" height="18" rx="9" fill="#D06A3C"/>
  <rect x="948" y="306" width="236" height="24" rx="12" fill="#4B301F"/>
  <rect x="948" y="344" width="206" height="14" rx="7" fill="#926A56"/>
  <rect x="948" y="366" width="176" height="14" rx="7" fill="#BE9B87"/>

  <rect x="1334" y="232" width="334" height="176" rx="30" fill="#F6FAFB" stroke="#CFDADF"/>
  <rect x="1364" y="268" width="128" height="18" rx="9" fill="#2A7B87"/>
  <rect x="1364" y="306" width="236" height="24" rx="12" fill="#223139"/>
  <rect x="1364" y="344" width="210" height="14" rx="7" fill="#7E8A91"/>
  <rect x="1364" y="366" width="244" height="14" rx="7" fill="#B0BAC0"/>

  <path d="M356 316H454" stroke="#D06A3C" stroke-width="8" stroke-linecap="round"/>
  <path d="M814 316H916" stroke="#D06A3C" stroke-width="8" stroke-linecap="round"/>
  <path d="M1244 316H1334" stroke="#2A7B87" stroke-width="8" stroke-linecap="round"/>

  <polygon points="446,316 426,304 426,328" fill="#D06A3C"/>
  <polygon points="908,316 888,304 888,328" fill="#D06A3C"/>
  <polygon points="1326,316 1306,304 1306,328" fill="#2A7B87"/>

  <rect x="92" y="470" width="1576" height="252" rx="30" fill="#FFFDF9" stroke="#DED4C8"/>
  <rect x="122" y="502" width="248" height="18" rx="9" fill="#23313A"/>
  <rect x="122" y="538" width="440" height="16" rx="8" fill="#97A2A8"/>

  <rect x="122" y="580" width="292" height="110" rx="24" fill="#FFFFFF" stroke="#E6DDD2"/>
  <rect x="438" y="580" width="292" height="110" rx="24" fill="#FFFFFF" stroke="#E6DDD2"/>
  <rect x="754" y="580" width="292" height="110" rx="24" fill="#FFFFFF" stroke="#E6DDD2"/>
  <rect x="1070" y="580" width="292" height="110" rx="24" fill="#FFFFFF" stroke="#E6DDD2"/>
  <rect x="1386" y="580" width="252" height="110" rx="24" fill="#FFFFFF" stroke="#E6DDD2"/>

  <rect x="148" y="608" width="118" height="14" rx="7" fill="#2A7B87"/>
  <rect x="148" y="636" width="168" height="18" rx="9" fill="#23313A"/>
  <rect x="148" y="664" width="206" height="12" rx="6" fill="#A6B0B5"/>

  <rect x="464" y="608" width="92" height="14" rx="7" fill="#2A7B87"/>
  <rect x="464" y="636" width="172" height="18" rx="9" fill="#23313A"/>
  <rect x="464" y="664" width="218" height="12" rx="6" fill="#A6B0B5"/>

  <rect x="780" y="608" width="132" height="14" rx="7" fill="#2A7B87"/>
  <rect x="780" y="636" width="196" height="18" rx="9" fill="#23313A"/>
  <rect x="780" y="664" width="232" height="12" rx="6" fill="#A6B0B5"/>

  <rect x="1096" y="608" width="116" height="14" rx="7" fill="#2A7B87"/>
  <rect x="1096" y="636" width="182" height="18" rx="9" fill="#23313A"/>
  <rect x="1096" y="664" width="220" height="12" rx="6" fill="#A6B0B5"/>

  <rect x="1412" y="608" width="116" height="14" rx="7" fill="#D06A3C"/>
  <rect x="1412" y="636" width="164" height="18" rx="9" fill="#4B301F"/>
  <rect x="1412" y="664" width="182" height="12" rx="6" fill="#BE9B87"/>

  <rect x="92" y="766" width="1028" height="220" rx="30" fill="#F7FBFC" stroke="#CCDADF"/>
  <rect x="124" y="802" width="310" height="18" rx="9" fill="#223139"/>
  <rect x="124" y="838" width="540" height="16" rx="8" fill="#91A0A7"/>
  <rect x="124" y="884" width="932" height="20" rx="10" fill="#E4EFF1"/>
  <rect x="124" y="922" width="782" height="20" rx="10" fill="#E4EFF1"/>

  <rect x="1150" y="766" width="518" height="220" rx="30" fill="#FDF8F1" stroke="#E2D5C8"/>
  <rect x="1184" y="802" width="184" height="18" rx="9" fill="#4B301F"/>
  <rect x="1184" y="838" width="292" height="16" rx="8" fill="#A17C66"/>
  <rect x="1184" y="884" width="420" height="20" rx="10" fill="#F3E3D6"/>
  <rect x="1184" y="922" width="364" height="20" rx="10" fill="#F3E3D6"/>

  <text x="122" y="98" fill="#223139" font-family="Segoe UI, Arial, sans-serif" font-size="34" font-weight="700">Smart Home Multi-Agent Platform</text>
  <text x="122" y="145" fill="#67747B" font-family="Segoe UI, Arial, sans-serif" font-size="20">Vue d'ensemble pour soutenance : entree utilisateur, bus evenementiel, coordination, agents objets et observabilite.</text>

  <defs>
    <linearGradient id="head" x1="86" y1="78" x2="1714" y2="198" gradientUnits="userSpaceOnUse">
      <stop stop-color="#FFF7F0"/>
      <stop offset="1" stop-color="#F2FAFB"/>
    </linearGradient>
  </defs>
</svg>
